<?xml version="1.0" standalone="no"?>
<!DOCTYPE svg PUBLIC "-//W3C//DTD SVG 20010904//EN"
 "http://www.w3.org/TR/2001/REC-SVG-20010904/DTD/svg10.dtd">
<svg version="1.0" xmlns="http://www.w3.org/2000/svg"
 width="750.000000pt" height="750.000000pt" viewBox="0 0 750.000000 750.000000" preserveAspectRatio="xMidYMid meet">
<g transform="translate(0.000000,750.000000) scale(0.100000,-0.100000)"
fill="#000000" stroke="none">
<path d="M62.1388868,113.226084 L58.2259969,110.460158 C57.1715633,109.622202 57.2680685,108.394151 58.4403811,107.731445 L69.6919908,101.368777 C70.8645192,100.705855 71.346398,101.156746 70.7630483,102.370733 L65.5457178,113.226084 C64.9621522,114.439855 63.5178114,114.058631 62.1388868,113.226084 Z M101.851784,62.6282865 C102.12813,62.4926298 102.290268,62.770434 102.284439,62.9305393 C102.092292,68.300339 99.4497306,72.2700833 96.7598886,76.2670888 C93.499219,81.1122194 82.7309993,91.4792496 82.7309993,91.4792496 C81.8084778,92.4327412 81.0534913,92.1304884 81.0534913,90.8078894 L81.0534913,57.9763641 C81.0534913,56.6535487 81.9762286,54.9962431 83.1040667,54.293511 L104.147617,39.260495 C104.147617,39.260495 105.993739,37.9744605 105.993739,41.1053833 C105.993739,41.1053833 105.996762,41.9247326 106,43.0052266 L105.960275,49.4598475 C105.958332,49.5087445 105.953582,49.5574251 105.953798,49.605673 C105.980354,54.0003453 104.151071,55.9503838 104.151071,55.9503838 C104.151071,55.9503838 97.0632218,63.224354 96.7540595,64.3007372 C96.4971438,65.1949465 100.493154,63.2959686 101.851784,62.6282865 Z M25.1482161,62.6282865 C26.5066305,63.2959686 30.5028562,65.1949465 30.2459405,64.3007372 C29.9365623,63.224354 22.8487131,55.9503838 22.8487131,55.9503838 C22.8487131,55.9503838 21.0194306,54.0003453 21.0462016,49.605673 C21.0464175,49.5574251 21.0416678,49.5087445 21.0397248,49.4598475 L21,43.0052266 C21.0032384,41.9247326 21.0060451,41.1053833 21.0060451,41.1053833 C21.0060451,37.9744605 22.8523834,39.260495 22.8523834,39.260495 L43.8959333,54.293511 C45.0237714,54.9962431 45.9462928,56.6535487 45.9462928,57.9763641 L45.9462928,90.8078894 C45.9462928,92.1304884 45.1915222,92.4327412 44.2690007,91.4792496 C44.2690007,91.4792496 33.500781,81.1122194 30.2401114,76.2670888 C27.5502694,72.2700833 24.9074926,68.300339 24.7153456,62.9305393 C24.7097323,62.770434 24.8718698,62.4926298 25.1482161,62.6282865 Z M63.4994603,14 C75.7374965,14 85.6730072,23.957031 85.6730072,36.2213082 C85.6730072,48.4853691 75.7374965,58.4424001 63.4994603,58.4424001 C51.261424,58.4424001 41.3259133,48.4853691 41.3259133,36.2213082 C41.3259133,23.957031 51.261424,14 63.4994603,14 Z M50.2009454,90.6873778 C50.0062076,90.7767338 49.6717855,91.0218679 49.6409125,90.2003549 C49.5476456,87.7063914 49.6409125,75.7242455 49.6409125,75.7242455 C49.6409125,74.4120317 50.5835122,72.8003778 51.7357465,72.1432973 L75.2631741,58.7232334 C76.4151924,58.0661528 77.3580081,58.602289 77.3580081,59.9147192 L77.3580081,74.7400311 C77.3580081,74.7400311 77.3608147,75.1156293 77.100013,75.4537975 C76.4158401,76.3400016 73.4233126,79.4856367 73.2575049,80.0620156 C73.0757209,80.694864 75.0157578,79.9133773 76.6587226,79.1909566 C77.2746724,78.9200758 77.3580081,79.3015157 77.3580081,79.6522327 L77.3580081,92.0839714 C77.3580081,93.3966179 76.4151924,95.0080555 75.2631741,95.665136 L51.7357465,109.0852 C50.5835122,109.74228 49.6409125,109.206361 49.6409125,107.893714 L49.6409125,95.4617591 C49.6409125,95.1765987 49.7467012,94.6002198 50.2002977,94.1127643 C52.0272054,92.1486625 53.7019067,90.2561754 53.8623171,89.6979707 C54.0538164,89.031154 51.8819077,89.9169254 50.2009454,90.6873778 Z"></path>
</g>
</svg>