<?xml version="1.0" encoding="UTF-8"?>
<svg width="128px" height="128px" viewBox="0 0 128 128" version="1.1" xmlns="http://www.w3.org/2000/svg" xmlns:xlink="http://www.w3.org/1999/xlink">
    <!-- Generator: Sketch 49.3 (51167) - http://www.bohemiancoding.com/sketch -->
    <title>icons/design</title>
    <desc>Created with Sketch.</desc>
    <defs>
        <path d="M31.3795693,48.7412991 C39.7795693,30.7412991 61.1795693,22.9412991 79.1795693,31.4412991 C97.1795693,39.8412991 104.979569,61.2412991 96.5795693,79.2412991 C96.3795693,79.4412991 96.2795693,79.7412991 96.1795693,79.9412991 L81.3795693,111.741299 L49.5795693,96.8412991 C49.2795693,96.7412991 48.9795693,96.6412991 48.7795693,96.5412991 C30.7795693,88.1412991 22.9795693,66.7412991 31.3795693,48.7412991 Z M44.3103504,83.3273711 C55.0832463,94.1108145 72.5581119,94.1193651 83.3415554,83.3464693 C94.1249988,72.5735735 94.1335494,55.0987078 83.3606535,44.3152644 C72.5877577,33.5318209 55.1128921,33.5232704 44.3294486,44.2961662 C33.5460052,55.069062 33.5374546,72.5439277 44.3103504,83.3273711 Z M72.2590454,60.367205 C78.8147685,59.8850269 85.0910681,61.7633409 90.1258625,65.4688563 C89.5974779,71.5787507 87.0194682,77.4672026 82.5267951,82.0656685 C73.3085439,91.4765051 58.8566684,92.3838614 48.2043267,84.9928117 C49.0272099,71.9573653 59.0116565,61.370542 72.2590454,60.367205 Z M67.8109661,84.0486612 C68.3026633,85.7461846 70.6794272,86.5493127 73.119617,85.842498 C75.5598068,85.1356834 77.1393722,83.1865824 76.647675,81.4890591 C76.1559779,79.7915357 73.779214,78.9884076 71.3390242,79.6952223 C68.8988344,80.4020369 67.319269,82.3511379 67.8109661,84.0486612 Z" id="path-1"></path>
    </defs>
    <g id="icons/design" stroke="none" stroke-width="1" fill="none" fill-rule="evenodd">
        <mask id="mask-2" fill="white">
            <use xlink:href="#path-1"></use>
        </mask>
        <use id="Mask" fill="#FFFFFF" xlink:href="#path-1"></use>
    </g>
</svg>