<?xml version="1.0" encoding="UTF-8"?>
<svg width="128px" height="128px" viewBox="0 0 128 128" version="1.1" xmlns="http://www.w3.org/2000/svg" xmlns:xlink="http://www.w3.org/1999/xlink">
    <!-- Generator: Sketch 49.3 (51167) - http://www.bohemiancoding.com/sketch -->
    <title>icons/ui</title>
    <desc>Created with Sketch.</desc>
    <defs>
        <path d="M91,31.9533476 L91,25 C91,22.790861 92.790861,21 95,21 L103,21 C105.209139,21 107,22.790861 107,25 L107,33 C107,35.209139 105.209139,37 103,37 L97.4276319,37 L99.6082493,31.8407361 C100.604439,29.4837997 99.4895965,28.3683314 97.1301356,29.3652117 L91,31.9533476 Z M86.1491684,34.0013628 L48.660455,49.8290524 C46.2997581,50.8246974 46.2058246,52.6702231 48.4503406,53.9314558 C48.4503406,53.9314558 60.1732819,61.6915576 60.5836229,61.9904982 L30,83.1575102 L30,42 C30,37.581722 33.581722,34 38,34 L86,34 C86.0498305,34 86.0995546,34.0004556 86.1491684,34.0013628 Z M94,45.1096561 L94,90 C94,94.418278 90.418278,98 86,98 L43.6601319,98 L66.9898451,68.4004892 C67.2790614,68.7994884 75.0273383,80.4939311 75.0273383,80.4939311 C76.2880246,82.7359853 78.1357952,82.6433385 79.1332206,80.2839315 L94,45.1096561 Z" id="path-1"></path>
    </defs>
    <g id="icons/ui" stroke="none" stroke-width="1" fill="none" fill-rule="evenodd">
        <mask id="mask-2" fill="white">
            <use xlink:href="#path-1"></use>
        </mask>
        <use id="Mask" fill="#FFFFFF" xlink:href="#path-1"></use>
    </g>
</svg>