<?xml version="1.0" encoding="UTF-8"?>
<svg width="512px" height="128px" viewBox="0 0 512 128" version="1.1" xmlns="http://www.w3.org/2000/svg" xmlns:xlink="http://www.w3.org/1999/xlink">
    <!-- Generator: Sketch 49.3 (51167) - http://www.bohemiancoding.com/sketch -->
    <title>Duke Design Agency Services Icons</title>
    <desc>Duke Design Agency offers Design, UX, UI, and Frontend Services.</desc>
    <defs>
        <path d="M31.3795693,48.7412991 C39.7795693,30.7412991 61.1795693,22.9412991 79.1795693,31.4412991 C97.1795693,39.8412991 104.979569,61.2412991 96.5795693,79.2412991 C96.3795693,79.4412991 96.2795693,79.7412991 96.1795693,79.9412991 L81.3795693,111.741299 L49.5795693,96.8412991 C49.2795693,96.7412991 48.9795693,96.6412991 48.7795693,96.5412991 C30.7795693,88.1412991 22.9795693,66.7412991 31.3795693,48.7412991 Z M44.3103504,83.3273711 C55.0832463,94.1108145 72.5581119,94.1193651 83.3415554,83.3464693 C94.1249988,72.5735735 94.1335494,55.0987078 83.3606535,44.3152644 C72.5877577,33.5318209 55.1128921,33.5232704 44.3294486,44.2961662 C33.5460052,55.069062 33.5374546,72.5439277 44.3103504,83.3273711 Z M72.2590454,60.367205 C78.8147685,59.8850269 85.0910681,61.7633409 90.1258625,65.4688563 C89.5974779,71.5787507 87.0194682,77.4672026 82.5267951,82.0656685 C73.3085439,91.4765051 58.8566684,92.3838614 48.2043267,84.9928117 C49.0272099,71.9573653 59.0116565,61.370542 72.2590454,60.367205 Z M67.8109661,84.0486612 C68.3026633,85.7461846 70.6794272,86.5493127 73.119617,85.842498 C75.5598068,85.1356834 77.1393722,83.1865824 76.647675,81.4890591 C76.1559779,79.7915357 73.779214,78.9884076 71.3390242,79.6952223 C68.8988344,80.4020369 67.319269,82.3511379 67.8109661,84.0486612 Z" id="icon-design"></path>
        <path d="M27.3593083,90.1983 C25.8142083,86.6372 25.0000083,82.2862 25.0000083,72.9514 L25.0000083,58.0486 C25.0000083,46.9046 26.1603083,42.8635 28.3392083,38.7894 C30.5180083,34.7153 33.7154083,31.518 37.7894083,29.3392 C41.8635083,27.1603 45.9046083,26 57.0486083,26 L71.9514083,26 C83.0954083,26 87.1365083,27.1603 91.2106083,29.3392 C95.2847083,31.518 98.4820083,34.7153 100.660808,38.7894 C102.839708,42.8635 104.000008,46.9046 104.000008,58.0486 L104.000008,72.9514 C104.000008,84.0954 102.839708,88.1365 100.660808,92.2106 C98.4820083,96.2847 95.2847083,99.482 91.2106083,101.6608 C87.1365083,103.8397 83.0955083,105 71.9514083,105 L70.8209083,105 C70.8286083,102 70.8426083,99 70.8545083,96 L71.9514083,96 C80.7530083,96 83.8182083,95.4081 86.9662083,93.7245 C89.4718083,92.3845 91.3845083,90.4718 92.7245083,87.9662 C94.4081083,84.8182 95.0000083,81.753 95.0000083,72.9514 L95.0000083,58.0486 C95.0000083,49.247 94.4081083,46.1818 92.7245083,43.0338 C91.3845083,40.5282 89.4718083,38.6155 86.9662083,37.2755 C83.8183083,35.592 80.7530083,35 71.9514083,35 L57.0486083,35 C48.2470083,35 45.1817083,35.592 42.0338083,37.2755 C39.5282083,38.6155 37.6155083,40.5282 36.2755083,43.0338 C34.5919083,46.1818 34.0000083,49.247 34.0000083,58.0486 L34.0000083,72.9514 C34.0000083,76.1004 34.0000083,84.2073 34.0000083,97.2721 C30.5767658,94.4872087 28.3631991,92.1292754 27.3593083,90.1983 Z M63.8492083,77.1473 C65.9021083,77.1473 67.5649083,78.8101 67.5649083,80.863 L67.5649083,114.2732 C67.5649083,116.3262 66.0080083,117.976 63.9551083,117.976 L41.6605083,117.976 C40.7056083,117.976 39.7172083,117.5914 39.0205083,116.8947 L24.1444083,102.0373 C20.6684083,98.5612 25.8964083,93.3071 29.3725083,96.7832 L37.8389083,105.3034 L37.8389083,73.3869 C37.8389083,67.8133 45.2704083,67.8133 45.2704083,73.3869 L45.2704083,69.7158 C45.2704083,67.6628 46.9332083,66 48.9861083,66 C51.0391083,66 52.7019083,67.6628 52.7019083,69.7158 L52.7019083,73.4315 C52.7019083,71.3786 54.3647083,69.7158 56.4177083,69.7158 C58.4706083,69.7158 60.1334083,71.3786 60.1334083,73.4315 L60.1334083,80.863 C60.1334083,78.8101 61.7962083,77.1473 63.8492083,77.1473 Z" id="icon-ux"></path>
        <path d="M91,31.9533476 L91,25 C91,22.790861 92.790861,21 95,21 L103,21 C105.209139,21 107,22.790861 107,25 L107,33 C107,35.209139 105.209139,37 103,37 L97.4276319,37 L99.6082493,31.8407361 C100.604439,29.4837997 99.4895965,28.3683314 97.1301356,29.3652117 L91,31.9533476 Z M86.1491684,34.0013628 L48.660455,49.8290524 C46.2997581,50.8246974 46.2058246,52.6702231 48.4503406,53.9314558 C48.4503406,53.9314558 60.1732819,61.6915576 60.5836229,61.9904982 L30,83.1575102 L30,42 C30,37.581722 33.581722,34 38,34 L86,34 C86.0498305,34 86.0995546,34.0004556 86.1491684,34.0013628 Z M94,45.1096561 L94,90 C94,94.418278 90.418278,98 86,98 L43.6601319,98 L66.9898451,68.4004892 C67.2790614,68.7994884 75.0273383,80.4939311 75.0273383,80.4939311 C76.2880246,82.7359853 78.1357952,82.6433385 79.1332206,80.2839315 L94,45.1096561 Z" id="icon-ui"></path>
        <path d="M46.6873322,42.1535795 L35.5882962,61.4588096 C34.6842283,63.0313338 34.6842283,64.9686662 35.5882962,66.5411904 L46.6873322,85.8464205 L39.3498537,98.6088379 C39.1128836,98.3512062 38.9022965,98.0652818 38.723584,97.7543016 C34.9481784,91.1875119 24.4713531,72.9645983 20.6959475,66.3976887 C19.8429744,64.9139989 19.8429744,63.0860011 20.6959475,61.6023113 C24.4713531,55.0355216 34.9481784,36.812608 38.723584,30.2456984 C38.9022965,29.9347182 39.1128836,29.6487938 39.3498537,29.3911621 L46.6873322,42.1535795 Z M44.5207025,27.8480097 L85.0633661,27.8480097 C86.7694316,27.8478898 88.34585,28.7620086 89.1988231,30.2456984 C92.9742287,36.812608 103.451054,55.0355216 107.22646,61.6023113 C108.079552,63.0860011 108.079552,64.9139989 107.22646,66.3976887 C103.451054,72.9645983 92.9742287,91.1875119 89.1988231,97.7543016 C88.34585,99.2379914 86.7694316,100.15199 85.0633661,100.15199 L44.5207025,100.15199 L63.9268247,66.3976887 C64.7799172,64.9139989 64.7799172,63.0860011 63.9268247,61.6023113 L44.5207025,27.8480097 Z" id="icon-frontend"></path>
    </defs>
</svg>