<?xml version="1.0" encoding="UTF-8"?>
<svg width="128px" height="128px" viewBox="0 0 128 128" version="1.1" xmlns="http://www.w3.org/2000/svg" xmlns:xlink="http://www.w3.org/1999/xlink">
    <!-- Generator: Sketch 49.3 (51167) - http://www.bohemiancoding.com/sketch -->
    <title>icons/frontend</title>
    <desc>Created with Sketch.</desc>
    <defs>
        <path d="M46.6873322,42.1535795 L35.5882962,61.4588096 C34.6842283,63.0313338 34.6842283,64.9686662 35.5882962,66.5411904 L46.6873322,85.8464205 L39.3498537,98.6088379 C39.1128836,98.3512062 38.9022965,98.0652818 38.723584,97.7543016 C34.9481784,91.1875119 24.4713531,72.9645983 20.6959475,66.3976887 C19.8429744,64.9139989 19.8429744,63.0860011 20.6959475,61.6023113 C24.4713531,55.0355216 34.9481784,36.812608 38.723584,30.2456984 C38.9022965,29.9347182 39.1128836,29.6487938 39.3498537,29.3911621 L46.6873322,42.1535795 Z M44.5207025,27.8480097 L85.0633661,27.8480097 C86.7694316,27.8478898 88.34585,28.7620086 89.1988231,30.2456984 C92.9742287,36.812608 103.451054,55.0355216 107.22646,61.6023113 C108.079552,63.0860011 108.079552,64.9139989 107.22646,66.3976887 C103.451054,72.9645983 92.9742287,91.1875119 89.1988231,97.7543016 C88.34585,99.2379914 86.7694316,100.15199 85.0633661,100.15199 L44.5207025,100.15199 L63.9268247,66.3976887 C64.7799172,64.9139989 64.7799172,63.0860011 63.9268247,61.6023113 L44.5207025,27.8480097 Z" id="path-1"></path>
    </defs>
    <g id="icons/frontend" stroke="none" stroke-width="1" fill="none" fill-rule="evenodd">
        <mask id="mask-2" fill="white">
            <use xlink:href="#path-1"></use>
        </mask>
        <use id="Mask" fill="#FFFFFF" xlink:href="#path-1"></use>
    </g>
</svg>