<?xml version="1.0" encoding="UTF-8"?>
<svg width="128px" height="128px" viewBox="0 0 128 128" version="1.1" xmlns="http://www.w3.org/2000/svg" xmlns:xlink="http://www.w3.org/1999/xlink">
    <!-- Generator: Sketch 49.3 (51167) - http://www.bohemiancoding.com/sketch -->
    <title>icons/ux</title>
    <desc>Created with Sketch.</desc>
    <defs>
        <path d="M27.3593083,90.1983 C25.8142083,86.6372 25.0000083,82.2862 25.0000083,72.9514 L25.0000083,58.0486 C25.0000083,46.9046 26.1603083,42.8635 28.3392083,38.7894 C30.5180083,34.7153 33.7154083,31.518 37.7894083,29.3392 C41.8635083,27.1603 45.9046083,26 57.0486083,26 L71.9514083,26 C83.0954083,26 87.1365083,27.1603 91.2106083,29.3392 C95.2847083,31.518 98.4820083,34.7153 100.660808,38.7894 C102.839708,42.8635 104.000008,46.9046 104.000008,58.0486 L104.000008,72.9514 C104.000008,84.0954 102.839708,88.1365 100.660808,92.2106 C98.4820083,96.2847 95.2847083,99.482 91.2106083,101.6608 C87.1365083,103.8397 83.0955083,105 71.9514083,105 L70.8209083,105 C70.8286083,102 70.8426083,99 70.8545083,96 L71.9514083,96 C80.7530083,96 83.8182083,95.4081 86.9662083,93.7245 C89.4718083,92.3845 91.3845083,90.4718 92.7245083,87.9662 C94.4081083,84.8182 95.0000083,81.753 95.0000083,72.9514 L95.0000083,58.0486 C95.0000083,49.247 94.4081083,46.1818 92.7245083,43.0338 C91.3845083,40.5282 89.4718083,38.6155 86.9662083,37.2755 C83.8183083,35.592 80.7530083,35 71.9514083,35 L57.0486083,35 C48.2470083,35 45.1817083,35.592 42.0338083,37.2755 C39.5282083,38.6155 37.6155083,40.5282 36.2755083,43.0338 C34.5919083,46.1818 34.0000083,49.247 34.0000083,58.0486 L34.0000083,72.9514 C34.0000083,76.1004 34.0000083,84.2073 34.0000083,97.2721 C30.5767658,94.4872087 28.3631991,92.1292754 27.3593083,90.1983 Z M63.8492083,77.1473 C65.9021083,77.1473 67.5649083,78.8101 67.5649083,80.863 L67.5649083,114.2732 C67.5649083,116.3262 66.0080083,117.976 63.9551083,117.976 L41.6605083,117.976 C40.7056083,117.976 39.7172083,117.5914 39.0205083,116.8947 L24.1444083,102.0373 C20.6684083,98.5612 25.8964083,93.3071 29.3725083,96.7832 L37.8389083,105.3034 L37.8389083,73.3869 C37.8389083,67.8133 45.2704083,67.8133 45.2704083,73.3869 L45.2704083,69.7158 C45.2704083,67.6628 46.9332083,66 48.9861083,66 C51.0391083,66 52.7019083,67.6628 52.7019083,69.7158 L52.7019083,73.4315 C52.7019083,71.3786 54.3647083,69.7158 56.4177083,69.7158 C58.4706083,69.7158 60.1334083,71.3786 60.1334083,73.4315 L60.1334083,80.863 C60.1334083,78.8101 61.7962083,77.1473 63.8492083,77.1473 Z" id="path-1"></path>
    </defs>
    <g id="icons/ux" stroke="none" stroke-width="1" fill="none" fill-rule="evenodd">
        <mask id="mask-2" fill="white">
            <use xlink:href="#path-1"></use>
        </mask>
        <use id="Mask" fill="#FFFFFF" xlink:href="#path-1"></use>
    </g>
</svg>